<mxfile host="app.diagrams.net" modified="2020-09-10T09:41:00.541Z" agent="5.0 (X11; Linux x86_64) AppleWebKit/537.36 (KHTML, like Gecko) Chrome/84.0.4147.135 Safari/537.36" etag="SSoWK5fkfKtdMsS2vuTK" version="13.6.6" type="github" pages="3">
  <diagram id="Aom846nJxp8-ckmhE_7P" name="Page-1">
    <mxGraphModel dx="1422" dy="716" grid="1" gridSize="10" guides="1" tooltips="1" connect="1" arrows="1" fold="1" page="1" pageScale="1" pageWidth="827" pageHeight="1169" background="#F4F1DE" math="1" shadow="0">
      <root>
        <mxCell id="0" />
        <mxCell id="1" parent="0" />
        <mxCell id="qtjspHp6lkipxShFISgi-15" style="edgeStyle=orthogonalEdgeStyle;rounded=0;orthogonalLoop=1;jettySize=auto;html=1;exitX=1;exitY=0.5;exitDx=0;exitDy=0;labelBackgroundColor=#F4F1DE;strokeColor=#E07A5F;fontColor=#393C56;" parent="1" source="qtjspHp6lkipxShFISgi-1" target="qtjspHp6lkipxShFISgi-14" edge="1">
          <mxGeometry relative="1" as="geometry" />
        </mxCell>
        <mxCell id="qtjspHp6lkipxShFISgi-1" value="dismips" style="rounded=0;whiteSpace=wrap;html=1;fillColor=#F2CC8F;strokeColor=#E07A5F;fontColor=#393C56;" parent="1" vertex="1">
          <mxGeometry x="440" y="320" width="50" height="20" as="geometry" />
        </mxCell>
        <mxCell id="qtjspHp6lkipxShFISgi-17" style="edgeStyle=orthogonalEdgeStyle;rounded=0;orthogonalLoop=1;jettySize=auto;html=1;exitX=1;exitY=0.5;exitDx=0;exitDy=0;labelBackgroundColor=#F4F1DE;strokeColor=#E07A5F;fontColor=#393C56;" parent="1" source="qtjspHp6lkipxShFISgi-2" target="qtjspHp6lkipxShFISgi-16" edge="1">
          <mxGeometry relative="1" as="geometry" />
        </mxCell>
        <mxCell id="qtjspHp6lkipxShFISgi-2" value="disla" style="rounded=0;whiteSpace=wrap;html=1;fillColor=#F2CC8F;strokeColor=#E07A5F;fontColor=#393C56;" parent="1" vertex="1">
          <mxGeometry x="40" y="320" width="40" height="20" as="geometry" />
        </mxCell>
        <mxCell id="qtjspHp6lkipxShFISgi-18" style="edgeStyle=orthogonalEdgeStyle;rounded=0;orthogonalLoop=1;jettySize=auto;html=1;exitX=1;exitY=0.5;exitDx=0;exitDy=0;entryX=0;entryY=0.5;entryDx=0;entryDy=0;labelBackgroundColor=#F4F1DE;strokeColor=#E07A5F;fontColor=#393C56;" parent="1" source="qtjspHp6lkipxShFISgi-3" target="qtjspHp6lkipxShFISgi-19" edge="1">
          <mxGeometry relative="1" as="geometry">
            <mxPoint x="140" y="770" as="targetPoint" />
          </mxGeometry>
        </mxCell>
        <mxCell id="qtjspHp6lkipxShFISgi-3" value="include" style="rounded=0;whiteSpace=wrap;html=1;fillColor=#F2CC8F;strokeColor=#E07A5F;fontColor=#393C56;" parent="1" vertex="1">
          <mxGeometry x="40" y="760" width="50" height="20" as="geometry" />
        </mxCell>
        <mxCell id="qtjspHp6lkipxShFISgi-21" style="edgeStyle=orthogonalEdgeStyle;rounded=0;orthogonalLoop=1;jettySize=auto;html=1;exitX=1;exitY=0.5;exitDx=0;exitDy=0;labelBackgroundColor=#F4F1DE;strokeColor=#E07A5F;fontColor=#393C56;" parent="1" source="qtjspHp6lkipxShFISgi-4" target="qtjspHp6lkipxShFISgi-20" edge="1">
          <mxGeometry relative="1" as="geometry" />
        </mxCell>
        <mxCell id="qtjspHp6lkipxShFISgi-4" value="ir1" style="rounded=0;whiteSpace=wrap;html=1;fillColor=#F2CC8F;strokeColor=#E07A5F;fontColor=#393C56;" parent="1" vertex="1">
          <mxGeometry x="40" y="440" width="40" height="20" as="geometry" />
        </mxCell>
        <mxCell id="qtjspHp6lkipxShFISgi-5" value="ir2" style="rounded=0;whiteSpace=wrap;html=1;fillColor=#F2CC8F;strokeColor=#E07A5F;fontColor=#393C56;" parent="1" vertex="1">
          <mxGeometry x="440" y="520" width="40" height="20" as="geometry" />
        </mxCell>
        <mxCell id="qtjspHp6lkipxShFISgi-25" style="edgeStyle=orthogonalEdgeStyle;rounded=0;orthogonalLoop=1;jettySize=auto;html=1;exitX=1;exitY=0.5;exitDx=0;exitDy=0;entryX=0;entryY=0.5;entryDx=0;entryDy=0;labelBackgroundColor=#F4F1DE;strokeColor=#E07A5F;fontColor=#393C56;" parent="1" source="qtjspHp6lkipxShFISgi-6" target="qtjspHp6lkipxShFISgi-24" edge="1">
          <mxGeometry relative="1" as="geometry" />
        </mxCell>
        <mxCell id="qtjspHp6lkipxShFISgi-6" value="translator" style="rounded=0;whiteSpace=wrap;html=1;fillColor=#F2CC8F;strokeColor=#E07A5F;fontColor=#393C56;" parent="1" vertex="1">
          <mxGeometry x="40" y="520" width="60" height="20" as="geometry" />
        </mxCell>
        <mxCell id="qtjspHp6lkipxShFISgi-27" style="edgeStyle=orthogonalEdgeStyle;rounded=0;orthogonalLoop=1;jettySize=auto;html=1;exitX=1;exitY=0.5;exitDx=0;exitDy=0;entryX=0;entryY=0.5;entryDx=0;entryDy=0;labelBackgroundColor=#F4F1DE;strokeColor=#E07A5F;fontColor=#393C56;" parent="1" source="qtjspHp6lkipxShFISgi-7" target="qtjspHp6lkipxShFISgi-26" edge="1">
          <mxGeometry relative="1" as="geometry" />
        </mxCell>
        <mxCell id="qtjspHp6lkipxShFISgi-7" value="tu" style="rounded=0;whiteSpace=wrap;html=1;fillColor=#F2CC8F;strokeColor=#E07A5F;fontColor=#393C56;" parent="1" vertex="1">
          <mxGeometry x="440" y="600" width="40" height="20" as="geometry" />
        </mxCell>
        <mxCell id="qtjspHp6lkipxShFISgi-28" style="edgeStyle=orthogonalEdgeStyle;rounded=0;orthogonalLoop=1;jettySize=auto;html=1;exitX=1;exitY=0.5;exitDx=0;exitDy=0;entryX=0;entryY=0.5;entryDx=0;entryDy=0;labelBackgroundColor=#F4F1DE;strokeColor=#E07A5F;fontColor=#393C56;" parent="1" source="qtjspHp6lkipxShFISgi-8" target="qtjspHp6lkipxShFISgi-29" edge="1">
          <mxGeometry relative="1" as="geometry">
            <mxPoint x="190" y="610" as="targetPoint" />
          </mxGeometry>
        </mxCell>
        <mxCell id="qtjspHp6lkipxShFISgi-8" value="util" style="rounded=0;whiteSpace=wrap;html=1;fillColor=#F2CC8F;strokeColor=#E07A5F;fontColor=#393C56;" parent="1" vertex="1">
          <mxGeometry x="40" y="600" width="40" height="20" as="geometry" />
        </mxCell>
        <mxCell id="qtjspHp6lkipxShFISgi-30" style="edgeStyle=orthogonalEdgeStyle;rounded=0;orthogonalLoop=1;jettySize=auto;html=1;exitX=1;exitY=0.5;exitDx=0;exitDy=0;labelBackgroundColor=#F4F1DE;strokeColor=#E07A5F;fontColor=#393C56;" parent="1" source="qtjspHp6lkipxShFISgi-9" target="qtjspHp6lkipxShFISgi-31" edge="1">
          <mxGeometry relative="1" as="geometry">
            <mxPoint x="190" y="1010" as="targetPoint" />
          </mxGeometry>
        </mxCell>
        <mxCell id="qtjspHp6lkipxShFISgi-9" value="main" style="rounded=0;whiteSpace=wrap;html=1;fillColor=#F2CC8F;strokeColor=#E07A5F;fontColor=#393C56;" parent="1" vertex="1">
          <mxGeometry x="40" y="680" width="40" height="20" as="geometry" />
        </mxCell>
        <mxCell id="qtjspHp6lkipxShFISgi-14" value="将mips机器码反汇编" style="text;html=1;strokeColor=none;fillColor=none;align=left;verticalAlign=middle;whiteSpace=wrap;rounded=0;fontColor=#393C56;" parent="1" vertex="1">
          <mxGeometry x="600" y="320" width="160" height="20" as="geometry" />
        </mxCell>
        <mxCell id="qtjspHp6lkipxShFISgi-16" value="将LA机器码反汇编" style="text;html=1;strokeColor=none;fillColor=none;align=left;verticalAlign=middle;whiteSpace=wrap;rounded=0;fontColor=#393C56;" parent="1" vertex="1">
          <mxGeometry x="200" y="320" width="160" height="20" as="geometry" />
        </mxCell>
        <mxCell id="qtjspHp6lkipxShFISgi-19" value="头文件" style="text;html=1;strokeColor=none;fillColor=none;align=left;verticalAlign=middle;whiteSpace=wrap;rounded=0;labelPosition=center;verticalLabelPosition=middle;fontColor=#393C56;" parent="1" vertex="1">
          <mxGeometry x="200" y="760" width="160" height="20" as="geometry" />
        </mxCell>
        <mxCell id="qtjspHp6lkipxShFISgi-20" value="翻译为mips机器码" style="text;html=1;strokeColor=none;fillColor=none;align=left;verticalAlign=middle;whiteSpace=wrap;rounded=0;fontColor=#393C56;" parent="1" vertex="1">
          <mxGeometry x="200" y="440" width="160" height="20" as="geometry" />
        </mxCell>
        <mxCell id="qtjspHp6lkipxShFISgi-22" style="edgeStyle=orthogonalEdgeStyle;rounded=0;orthogonalLoop=1;jettySize=auto;html=1;exitX=1;exitY=0.5;exitDx=0;exitDy=0;labelBackgroundColor=#F4F1DE;strokeColor=#E07A5F;fontColor=#393C56;" parent="1" source="qtjspHp6lkipxShFISgi-5" target="qtjspHp6lkipxShFISgi-23" edge="1">
          <mxGeometry relative="1" as="geometry">
            <mxPoint x="490" y="530" as="sourcePoint" />
          </mxGeometry>
        </mxCell>
        <mxCell id="qtjspHp6lkipxShFISgi-23" value="翻译为la机器码" style="text;html=1;strokeColor=none;fillColor=none;align=left;verticalAlign=middle;whiteSpace=wrap;rounded=0;fontColor=#393C56;" parent="1" vertex="1">
          <mxGeometry x="600" y="520" width="160" height="20" as="geometry" />
        </mxCell>
        <mxCell id="qtjspHp6lkipxShFISgi-24" value="各类指令翻译的源文件" style="text;html=1;strokeColor=none;fillColor=none;align=left;verticalAlign=middle;whiteSpace=wrap;rounded=0;fontColor=#393C56;" parent="1" vertex="1">
          <mxGeometry x="200" y="520" width="160" height="20" as="geometry" />
        </mxCell>
        <mxCell id="qtjspHp6lkipxShFISgi-26" value="基本翻译块的实现" style="text;html=1;strokeColor=none;fillColor=none;align=left;verticalAlign=middle;whiteSpace=wrap;rounded=0;fontColor=#393C56;" parent="1" vertex="1">
          <mxGeometry x="600" y="600" width="160" height="20" as="geometry" />
        </mxCell>
        <mxCell id="qtjspHp6lkipxShFISgi-29" value="实现了一些C没有的数据结构" style="text;html=1;strokeColor=none;fillColor=none;align=left;verticalAlign=middle;whiteSpace=wrap;rounded=0;fontColor=#393C56;" parent="1" vertex="1">
          <mxGeometry x="200" y="600" width="160" height="20" as="geometry" />
        </mxCell>
        <mxCell id="qtjspHp6lkipxShFISgi-31" value="入口函数、处理elf文件、输出内存翻译后的机器码" style="text;html=1;strokeColor=none;fillColor=none;align=left;verticalAlign=middle;whiteSpace=wrap;rounded=0;fontColor=#393C56;" parent="1" vertex="1">
          <mxGeometry x="200" y="680" width="160" height="20" as="geometry" />
        </mxCell>
        <mxCell id="qtjspHp6lkipxShFISgi-33" value="源代码目录下各文件夹内实现的功能，以及数据结构" style="rounded=0;whiteSpace=wrap;html=1;align=center;fontSize=12;fillColor=#F2CC8F;strokeColor=#E07A5F;fontColor=#393C56;" parent="1" vertex="1">
          <mxGeometry y="240" width="160" height="40" as="geometry" />
        </mxCell>
        <mxCell id="TA3_cH7VvukM17leLb7_-7" style="edgeStyle=orthogonalEdgeStyle;curved=0;rounded=1;sketch=0;orthogonalLoop=1;jettySize=auto;html=1;exitX=1;exitY=0.5;exitDx=0;exitDy=0;entryX=0;entryY=0.5;entryDx=0;entryDy=0;labelBackgroundColor=#F4F1DE;strokeColor=#E07A5F;fontColor=#393C56;" parent="1" source="WBqkDcnKr9uTJA-TYEti-1" target="TA3_cH7VvukM17leLb7_-1" edge="1">
          <mxGeometry relative="1" as="geometry" />
        </mxCell>
        <mxCell id="TA3_cH7VvukM17leLb7_-8" style="edgeStyle=orthogonalEdgeStyle;curved=0;rounded=1;sketch=0;orthogonalLoop=1;jettySize=auto;html=1;exitX=1;exitY=1;exitDx=0;exitDy=0;entryX=0;entryY=0.75;entryDx=0;entryDy=0;labelBackgroundColor=#F4F1DE;strokeColor=#E07A5F;fontColor=#393C56;" parent="1" source="WBqkDcnKr9uTJA-TYEti-1" target="TA3_cH7VvukM17leLb7_-3" edge="1">
          <mxGeometry relative="1" as="geometry" />
        </mxCell>
        <mxCell id="TA3_cH7VvukM17leLb7_-21" style="edgeStyle=orthogonalEdgeStyle;curved=0;rounded=1;sketch=0;orthogonalLoop=1;jettySize=auto;html=1;exitX=1;exitY=1;exitDx=0;exitDy=0;entryX=0;entryY=0.5;entryDx=0;entryDy=0;labelBackgroundColor=#F4F1DE;strokeColor=#E07A5F;fontColor=#393C56;" parent="1" source="WBqkDcnKr9uTJA-TYEti-1" target="TA3_cH7VvukM17leLb7_-10" edge="1">
          <mxGeometry relative="1" as="geometry" />
        </mxCell>
        <mxCell id="TA3_cH7VvukM17leLb7_-22" style="edgeStyle=orthogonalEdgeStyle;curved=0;rounded=1;sketch=0;orthogonalLoop=1;jettySize=auto;html=1;exitX=1;exitY=1;exitDx=0;exitDy=0;entryX=0;entryY=0.5;entryDx=0;entryDy=0;labelBackgroundColor=#F4F1DE;strokeColor=#E07A5F;fontColor=#393C56;" parent="1" source="WBqkDcnKr9uTJA-TYEti-1" target="TA3_cH7VvukM17leLb7_-11" edge="1">
          <mxGeometry relative="1" as="geometry" />
        </mxCell>
        <mxCell id="WBqkDcnKr9uTJA-TYEti-1" value="IR2结构体" style="rounded=0;whiteSpace=wrap;html=1;fillColor=#F2CC8F;strokeColor=#E07A5F;fontColor=#393C56;" parent="1" vertex="1">
          <mxGeometry x="120" y="840" width="60" height="20" as="geometry" />
        </mxCell>
        <mxCell id="TA3_cH7VvukM17leLb7_-14" style="edgeStyle=orthogonalEdgeStyle;curved=0;rounded=1;sketch=0;orthogonalLoop=1;jettySize=auto;html=1;exitX=1;exitY=0.5;exitDx=0;exitDy=0;entryX=0;entryY=0.5;entryDx=0;entryDy=0;labelBackgroundColor=#F4F1DE;strokeColor=#E07A5F;fontColor=#393C56;" parent="1" source="TA3_cH7VvukM17leLb7_-1" target="TA3_cH7VvukM17leLb7_-15" edge="1">
          <mxGeometry relative="1" as="geometry">
            <mxPoint x="370" y="850" as="targetPoint" />
          </mxGeometry>
        </mxCell>
        <mxCell id="TA3_cH7VvukM17leLb7_-1" value="IR2_OPND结构体" style="rounded=0;whiteSpace=wrap;html=1;sketch=0;fillColor=#F2CC8F;strokeColor=#E07A5F;fontColor=#393C56;" parent="1" vertex="1">
          <mxGeometry x="200" y="840" width="120" height="20" as="geometry" />
        </mxCell>
        <mxCell id="TA3_cH7VvukM17leLb7_-12" style="edgeStyle=orthogonalEdgeStyle;curved=0;rounded=1;sketch=0;orthogonalLoop=1;jettySize=auto;html=1;exitX=1;exitY=0.5;exitDx=0;exitDy=0;entryX=0;entryY=0.5;entryDx=0;entryDy=0;labelBackgroundColor=#F4F1DE;strokeColor=#E07A5F;fontColor=#393C56;" parent="1" source="TA3_cH7VvukM17leLb7_-3" target="TA3_cH7VvukM17leLb7_-13" edge="1">
          <mxGeometry relative="1" as="geometry">
            <mxPoint x="360" y="890" as="targetPoint" />
          </mxGeometry>
        </mxCell>
        <mxCell id="TA3_cH7VvukM17leLb7_-3" value="IR2_INS_TYPE结构体" style="rounded=0;whiteSpace=wrap;html=1;sketch=0;fillColor=#F2CC8F;strokeColor=#E07A5F;fontColor=#393C56;" parent="1" vertex="1">
          <mxGeometry x="200" y="880" width="140" height="20" as="geometry" />
        </mxCell>
        <mxCell id="TA3_cH7VvukM17leLb7_-9" style="edgeStyle=orthogonalEdgeStyle;curved=0;rounded=1;sketch=0;orthogonalLoop=1;jettySize=auto;html=1;exitX=0.5;exitY=1;exitDx=0;exitDy=0;labelBackgroundColor=#F4F1DE;strokeColor=#E07A5F;fontColor=#393C56;" parent="1" source="TA3_cH7VvukM17leLb7_-3" target="TA3_cH7VvukM17leLb7_-3" edge="1">
          <mxGeometry relative="1" as="geometry" />
        </mxCell>
        <mxCell id="TA3_cH7VvukM17leLb7_-10" value="op_count整型" style="rounded=0;whiteSpace=wrap;html=1;sketch=0;fillColor=#F2CC8F;strokeColor=#E07A5F;fontColor=#393C56;" parent="1" vertex="1">
          <mxGeometry x="200" y="920" width="80" height="20" as="geometry" />
        </mxCell>
        <mxCell id="TA3_cH7VvukM17leLb7_-11" value="prev、index、next整型" style="rounded=0;whiteSpace=wrap;html=1;sketch=0;fillColor=#F2CC8F;strokeColor=#E07A5F;fontColor=#393C56;" parent="1" vertex="1">
          <mxGeometry x="200" y="960" width="140" height="20" as="geometry" />
        </mxCell>
        <mxCell id="TA3_cH7VvukM17leLb7_-13" value="保存了LA近三千条汇编指令" style="text;html=1;strokeColor=none;fillColor=none;align=center;verticalAlign=middle;whiteSpace=wrap;rounded=0;sketch=0;fontColor=#393C56;" parent="1" vertex="1">
          <mxGeometry x="360" y="880" width="120" height="20" as="geometry" />
        </mxCell>
        <mxCell id="TA3_cH7VvukM17leLb7_-15" value="保存枚举的键值对" style="text;html=1;strokeColor=none;fillColor=none;align=center;verticalAlign=middle;whiteSpace=wrap;rounded=0;sketch=0;fontColor=#393C56;" parent="1" vertex="1">
          <mxGeometry x="360" y="840" width="120" height="20" as="geometry" />
        </mxCell>
        <mxCell id="JEauQYoevmHhT9Z8oVpF-11" value="" style="edgeStyle=orthogonalEdgeStyle;curved=0;rounded=1;sketch=0;orthogonalLoop=1;jettySize=auto;html=1;labelBackgroundColor=#F4F1DE;strokeColor=#E07A5F;fontColor=#393C56;" parent="1" source="_CX-5Nnmrqa5psmsbB4g-4" target="JEauQYoevmHhT9Z8oVpF-5" edge="1">
          <mxGeometry relative="1" as="geometry" />
        </mxCell>
        <mxCell id="JEauQYoevmHhT9Z8oVpF-13" style="edgeStyle=orthogonalEdgeStyle;curved=0;rounded=1;sketch=0;orthogonalLoop=1;jettySize=auto;html=1;exitX=0.75;exitY=1;exitDx=0;exitDy=0;entryX=0;entryY=0.75;entryDx=0;entryDy=0;labelBackgroundColor=#F4F1DE;strokeColor=#E07A5F;fontColor=#393C56;" parent="1" source="_CX-5Nnmrqa5psmsbB4g-4" target="JEauQYoevmHhT9Z8oVpF-1" edge="1">
          <mxGeometry relative="1" as="geometry" />
        </mxCell>
        <mxCell id="JEauQYoevmHhT9Z8oVpF-14" style="edgeStyle=orthogonalEdgeStyle;curved=0;rounded=1;sketch=0;orthogonalLoop=1;jettySize=auto;html=1;exitX=0.75;exitY=1;exitDx=0;exitDy=0;entryX=0;entryY=0.5;entryDx=0;entryDy=0;labelBackgroundColor=#F4F1DE;strokeColor=#E07A5F;fontColor=#393C56;" parent="1" source="_CX-5Nnmrqa5psmsbB4g-4" target="JEauQYoevmHhT9Z8oVpF-7" edge="1">
          <mxGeometry relative="1" as="geometry" />
        </mxCell>
        <mxCell id="JEauQYoevmHhT9Z8oVpF-16" style="edgeStyle=orthogonalEdgeStyle;curved=0;rounded=1;sketch=0;orthogonalLoop=1;jettySize=auto;html=1;exitX=0.75;exitY=1;exitDx=0;exitDy=0;entryX=0;entryY=0.5;entryDx=0;entryDy=0;labelBackgroundColor=#F4F1DE;strokeColor=#E07A5F;fontColor=#393C56;" parent="1" source="_CX-5Nnmrqa5psmsbB4g-4" target="JEauQYoevmHhT9Z8oVpF-15" edge="1">
          <mxGeometry relative="1" as="geometry" />
        </mxCell>
        <mxCell id="_CX-5Nnmrqa5psmsbB4g-4" value="elf_info结构体" style="rounded=0;whiteSpace=wrap;html=1;sketch=0;fillColor=#F2CC8F;strokeColor=#E07A5F;fontColor=#393C56;" parent="1" vertex="1">
          <mxGeometry x="120" y="1000" width="80" height="20" as="geometry" />
        </mxCell>
        <mxCell id="_CX-5Nnmrqa5psmsbB4g-6" value="" style="edgeStyle=orthogonalEdgeStyle;curved=0;rounded=1;sketch=0;orthogonalLoop=1;jettySize=auto;html=1;labelBackgroundColor=#F4F1DE;strokeColor=#E07A5F;fontColor=#393C56;" parent="1" source="_CX-5Nnmrqa5psmsbB4g-5" target="WBqkDcnKr9uTJA-TYEti-1" edge="1">
          <mxGeometry relative="1" as="geometry" />
        </mxCell>
        <mxCell id="_CX-5Nnmrqa5psmsbB4g-5" value="ir2.h" style="rounded=0;whiteSpace=wrap;html=1;sketch=0;fillColor=#F2CC8F;strokeColor=#E07A5F;fontColor=#393C56;" parent="1" vertex="1">
          <mxGeometry x="40" y="840" width="40" height="20" as="geometry" />
        </mxCell>
        <mxCell id="_CX-5Nnmrqa5psmsbB4g-8" value="" style="edgeStyle=orthogonalEdgeStyle;curved=0;rounded=1;sketch=0;orthogonalLoop=1;jettySize=auto;html=1;labelBackgroundColor=#F4F1DE;strokeColor=#E07A5F;fontColor=#393C56;" parent="1" source="_CX-5Nnmrqa5psmsbB4g-7" target="_CX-5Nnmrqa5psmsbB4g-4" edge="1">
          <mxGeometry relative="1" as="geometry" />
        </mxCell>
        <mxCell id="_CX-5Nnmrqa5psmsbB4g-7" value="elf_info.h" style="rounded=0;whiteSpace=wrap;html=1;sketch=0;fillColor=#F2CC8F;strokeColor=#E07A5F;fontColor=#393C56;" parent="1" vertex="1">
          <mxGeometry x="40" y="1000" width="60" height="20" as="geometry" />
        </mxCell>
        <mxCell id="JEauQYoevmHhT9Z8oVpF-3" value="" style="edgeStyle=orthogonalEdgeStyle;curved=0;rounded=1;sketch=0;orthogonalLoop=1;jettySize=auto;html=1;labelBackgroundColor=#F4F1DE;strokeColor=#E07A5F;fontColor=#393C56;" parent="1" source="JEauQYoevmHhT9Z8oVpF-1" target="JEauQYoevmHhT9Z8oVpF-2" edge="1">
          <mxGeometry relative="1" as="geometry" />
        </mxCell>
        <mxCell id="JEauQYoevmHhT9Z8oVpF-1" value="ehdr、shdr、phdr" style="rounded=0;whiteSpace=wrap;html=1;sketch=0;fillColor=#F2CC8F;strokeColor=#E07A5F;fontColor=#393C56;" parent="1" vertex="1">
          <mxGeometry x="240" y="1080" width="120" height="20" as="geometry" />
        </mxCell>
        <mxCell id="JEauQYoevmHhT9Z8oVpF-2" value="elf表头、节头、段头指针" style="text;html=1;strokeColor=none;fillColor=none;align=center;verticalAlign=middle;whiteSpace=wrap;rounded=0;sketch=0;fontColor=#393C56;" parent="1" vertex="1">
          <mxGeometry x="400" y="1080" width="140" height="20" as="geometry" />
        </mxCell>
        <mxCell id="JEauQYoevmHhT9Z8oVpF-4" value="elf文件信息" style="text;html=1;strokeColor=none;fillColor=none;align=center;verticalAlign=middle;whiteSpace=wrap;rounded=0;sketch=0;fontColor=#393C56;" parent="1" vertex="1">
          <mxGeometry x="440" y="1000" width="80" height="20" as="geometry" />
        </mxCell>
        <mxCell id="JEauQYoevmHhT9Z8oVpF-6" value="" style="edgeStyle=orthogonalEdgeStyle;curved=0;rounded=1;sketch=0;orthogonalLoop=1;jettySize=auto;html=1;labelBackgroundColor=#F4F1DE;strokeColor=#E07A5F;fontColor=#393C56;" parent="1" source="JEauQYoevmHhT9Z8oVpF-5" target="JEauQYoevmHhT9Z8oVpF-4" edge="1">
          <mxGeometry relative="1" as="geometry" />
        </mxCell>
        <mxCell id="JEauQYoevmHhT9Z8oVpF-5" value="mips_name、file_size、buff" style="rounded=0;whiteSpace=wrap;html=1;sketch=0;fillColor=#F2CC8F;strokeColor=#E07A5F;fontColor=#393C56;" parent="1" vertex="1">
          <mxGeometry x="240" y="1000" width="160" height="20" as="geometry" />
        </mxCell>
        <mxCell id="JEauQYoevmHhT9Z8oVpF-10" value="" style="edgeStyle=orthogonalEdgeStyle;curved=0;rounded=1;sketch=0;orthogonalLoop=1;jettySize=auto;html=1;labelBackgroundColor=#F4F1DE;strokeColor=#E07A5F;fontColor=#393C56;" parent="1" source="JEauQYoevmHhT9Z8oVpF-7" target="JEauQYoevmHhT9Z8oVpF-9" edge="1">
          <mxGeometry relative="1" as="geometry" />
        </mxCell>
        <mxCell id="JEauQYoevmHhT9Z8oVpF-7" value="&lt;div style=&quot;line-height: 19px&quot;&gt;&lt;span style=&quot;&quot;&gt;translation_context&lt;/span&gt;&lt;br&gt;&lt;/div&gt;" style="rounded=0;whiteSpace=wrap;html=1;sketch=0;labelBackgroundColor=none;fillColor=#F2CC8F;strokeColor=#E07A5F;fontColor=#393C56;" parent="1" vertex="1">
          <mxGeometry x="240" y="1120" width="120" height="20" as="geometry" />
        </mxCell>
        <mxCell id="JEauQYoevmHhT9Z8oVpF-9" value="翻译上下文环境" style="text;html=1;strokeColor=none;fillColor=none;align=center;verticalAlign=middle;whiteSpace=wrap;rounded=0;labelBackgroundColor=none;sketch=0;fontColor=#393C56;" parent="1" vertex="1">
          <mxGeometry x="400" y="1120" width="100" height="20" as="geometry" />
        </mxCell>
        <mxCell id="JEauQYoevmHhT9Z8oVpF-15" value="addr_to_tu、tu_addr、tb_to_code_addr" style="rounded=0;whiteSpace=wrap;html=1;labelBackgroundColor=none;sketch=0;fillColor=#d80073;strokeColor=#A50040;fontColor=#ffffff;" parent="1" vertex="1">
          <mxGeometry x="240" y="1040" width="220" height="20" as="geometry" />
        </mxCell>
        <mxCell id="QQQnxEIxQd7CLi5y5rRg-1" value="代码位置及运行方式" style="rounded=0;whiteSpace=wrap;html=1;align=center;fontSize=12;fillColor=#F2CC8F;strokeColor=#E07A5F;fontColor=#393C56;" parent="1" vertex="1">
          <mxGeometry width="160" height="40" as="geometry" />
        </mxCell>
        <mxCell id="QQQnxEIxQd7CLi5y5rRg-4" value="" style="edgeStyle=orthogonalEdgeStyle;curved=0;rounded=1;sketch=0;orthogonalLoop=1;jettySize=auto;html=1;labelBackgroundColor=#F4F1DE;strokeColor=#E07A5F;fontColor=#393C56;" parent="1" source="QQQnxEIxQd7CLi5y5rRg-2" target="QQQnxEIxQd7CLi5y5rRg-3" edge="1">
          <mxGeometry relative="1" as="geometry" />
        </mxCell>
        <mxCell id="QQQnxEIxQd7CLi5y5rRg-2" value="代码位置" style="rounded=0;whiteSpace=wrap;html=1;labelBackgroundColor=none;sketch=0;fillColor=#F2CC8F;strokeColor=#E07A5F;fontColor=#393C56;" parent="1" vertex="1">
          <mxGeometry x="40" y="80" width="80" height="20" as="geometry" />
        </mxCell>
        <UserObject label="http://foxsen.3322.org:33336/qwqcxh/lasbt" link="http://foxsen.3322.org:33336/qwqcxh/lasbt" id="QQQnxEIxQd7CLi5y5rRg-3">
          <mxCell style="text;html=1;strokeColor=none;fillColor=none;align=center;verticalAlign=middle;whiteSpace=wrap;rounded=0;labelBackgroundColor=none;sketch=0;fontColor=#393C56;" parent="1" vertex="1">
            <mxGeometry x="200" y="80" width="240" height="20" as="geometry" />
          </mxCell>
        </UserObject>
        <mxCell id="QQQnxEIxQd7CLi5y5rRg-10" value="" style="edgeStyle=orthogonalEdgeStyle;curved=0;rounded=1;sketch=0;orthogonalLoop=1;jettySize=auto;html=1;labelBackgroundColor=#F4F1DE;strokeColor=#E07A5F;fontColor=#393C56;" parent="1" source="QQQnxEIxQd7CLi5y5rRg-5" target="QQQnxEIxQd7CLi5y5rRg-6" edge="1">
          <mxGeometry relative="1" as="geometry" />
        </mxCell>
        <mxCell id="QQQnxEIxQd7CLi5y5rRg-5" value="运行方式" style="rounded=0;whiteSpace=wrap;html=1;labelBackgroundColor=none;sketch=0;fillColor=#F2CC8F;strokeColor=#E07A5F;fontColor=#393C56;" parent="1" vertex="1">
          <mxGeometry x="40" y="160" width="80" height="20" as="geometry" />
        </mxCell>
        <mxCell id="QQQnxEIxQd7CLi5y5rRg-6" value="1、make all&lt;br&gt;2、./lasbt MipsElfFile" style="text;html=1;strokeColor=none;fillColor=none;align=left;verticalAlign=middle;whiteSpace=wrap;rounded=0;labelBackgroundColor=none;sketch=0;fontColor=#393C56;fontStyle=0" parent="1" vertex="1">
          <mxGeometry x="200" y="160" width="120" height="20" as="geometry" />
        </mxCell>
        <mxCell id="JP9IEoHmW8Uf7j2zj-nc-1" value="没看懂" style="rounded=0;whiteSpace=wrap;html=1;sketch=0;strokeColor=#A50040;fillColor=#d80073;fontColor=#ffffff;" parent="1" vertex="1">
          <mxGeometry x="200" width="40" height="20" as="geometry" />
        </mxCell>
        <mxCell id="JP9IEoHmW8Uf7j2zj-nc-2" value="没实现" style="rounded=0;whiteSpace=wrap;html=1;sketch=0;strokeColor=#2D7600;fillColor=#60a917;fontColor=#ffffff;" parent="1" vertex="1">
          <mxGeometry x="280" width="40" height="20" as="geometry" />
        </mxCell>
        <mxCell id="J3propF7f8PBXbvJP5WU-1" value="数据结构" style="rounded=0;whiteSpace=wrap;html=1;strokeColor=#E07A5F;fillColor=#F2CC8F;fontColor=#393C56;align=left;" vertex="1" parent="1">
          <mxGeometry y="1169" width="120" height="40" as="geometry" />
        </mxCell>
        <mxCell id="J3propF7f8PBXbvJP5WU-8" value="" style="edgeStyle=none;orthogonalLoop=1;jettySize=auto;html=1;labelBackgroundColor=#F4F1DE;endArrow=diamondThin;endFill=1;strokeColor=#E07A5F;fontColor=#393C56;" edge="1" parent="1" source="J3propF7f8PBXbvJP5WU-2" target="J3propF7f8PBXbvJP5WU-3">
          <mxGeometry relative="1" as="geometry" />
        </mxCell>
        <mxCell id="J3propF7f8PBXbvJP5WU-2" value="set" style="rounded=0;whiteSpace=wrap;html=1;strokeColor=#E07A5F;fillColor=#F2CC8F;fontColor=#393C56;align=left;" vertex="1" parent="1">
          <mxGeometry x="40" y="1240" width="40" height="20" as="geometry" />
        </mxCell>
        <mxCell id="J3propF7f8PBXbvJP5WU-3" value="保存每个二进制文件的elf_info信息，key是分配的指针地址" style="text;html=1;strokeColor=none;fillColor=none;align=left;verticalAlign=middle;whiteSpace=wrap;rounded=0;fontColor=#393C56;" vertex="1" parent="1">
          <mxGeometry x="160" y="1230" width="170" height="40" as="geometry" />
        </mxCell>
        <mxCell id="J3propF7f8PBXbvJP5WU-9" value="" style="edgeStyle=none;orthogonalLoop=1;jettySize=auto;html=1;labelBackgroundColor=#F4F1DE;endArrow=diamondThin;endFill=1;strokeColor=#E07A5F;fontColor=#393C56;" edge="1" parent="1" source="J3propF7f8PBXbvJP5WU-4" target="J3propF7f8PBXbvJP5WU-5">
          <mxGeometry relative="1" as="geometry" />
        </mxCell>
        <mxCell id="J3propF7f8PBXbvJP5WU-4" value="map" style="rounded=0;whiteSpace=wrap;html=1;strokeColor=#E07A5F;fillColor=#F2CC8F;fontColor=#393C56;align=left;" vertex="1" parent="1">
          <mxGeometry x="40" y="1320" width="40" height="20" as="geometry" />
        </mxCell>
        <mxCell id="J3propF7f8PBXbvJP5WU-5" value="保存当前elf文件的信息" style="text;html=1;strokeColor=none;fillColor=none;align=center;verticalAlign=middle;whiteSpace=wrap;rounded=0;fontColor=#393C56;" vertex="1" parent="1">
          <mxGeometry x="160" y="1310" width="130" height="40" as="geometry" />
        </mxCell>
        <mxCell id="J3propF7f8PBXbvJP5WU-10" value="" style="edgeStyle=none;orthogonalLoop=1;jettySize=auto;html=1;labelBackgroundColor=#F4F1DE;endArrow=diamondThin;endFill=1;strokeColor=#E07A5F;fontColor=#393C56;" edge="1" parent="1" source="J3propF7f8PBXbvJP5WU-6" target="J3propF7f8PBXbvJP5WU-7">
          <mxGeometry relative="1" as="geometry" />
        </mxCell>
        <mxCell id="J3propF7f8PBXbvJP5WU-6" value="vector" style="rounded=0;whiteSpace=wrap;html=1;strokeColor=#E07A5F;fillColor=#F2CC8F;fontColor=#393C56;align=left;" vertex="1" parent="1">
          <mxGeometry x="40" y="1400" width="40" height="20" as="geometry" />
        </mxCell>
        <mxCell id="J3propF7f8PBXbvJP5WU-7" value="保存tu块和tb块的信息" style="text;html=1;strokeColor=none;fillColor=none;align=center;verticalAlign=middle;whiteSpace=wrap;rounded=0;fontColor=#393C56;" vertex="1" parent="1">
          <mxGeometry x="160" y="1390" width="120" height="40" as="geometry" />
        </mxCell>
      </root>
    </mxGraphModel>
  </diagram>
  <diagram id="pZNuYVnxwlgJh_vSdz6V" name="Page-2">
    <mxGraphModel dx="1422" dy="716" grid="1" gridSize="10" guides="1" tooltips="1" connect="1" arrows="1" fold="1" page="1" pageScale="1" pageWidth="827" pageHeight="1169" background="#F4F1DE" math="0" shadow="0">
      <root>
        <mxCell id="Kx-HwaA-jPvCksvryL7s-0" />
        <mxCell id="Kx-HwaA-jPvCksvryL7s-1" parent="Kx-HwaA-jPvCksvryL7s-0" />
        <mxCell id="_6BqYGq3dcQpMGy_Ji9J-27" value="" style="rounded=0;whiteSpace=wrap;html=1;strokeColor=#b85450;fillColor=#f8cecc;align=left;" vertex="1" parent="Kx-HwaA-jPvCksvryL7s-1">
          <mxGeometry y="640" width="826" height="280" as="geometry" />
        </mxCell>
        <mxCell id="_6BqYGq3dcQpMGy_Ji9J-17" value="" style="rounded=0;whiteSpace=wrap;html=1;strokeColor=#82b366;fillColor=#d5e8d4;align=left;" vertex="1" parent="Kx-HwaA-jPvCksvryL7s-1">
          <mxGeometry y="460" width="205" height="160" as="geometry" />
        </mxCell>
        <mxCell id="_6BqYGq3dcQpMGy_Ji9J-20" value="" style="rounded=0;whiteSpace=wrap;html=1;strokeColor=#666666;fillColor=#f5f5f5;align=left;fontColor=#333333;" vertex="1" parent="Kx-HwaA-jPvCksvryL7s-1">
          <mxGeometry x="1" y="280" width="826" height="160" as="geometry" />
        </mxCell>
        <mxCell id="_6BqYGq3dcQpMGy_Ji9J-16" value="" style="rounded=0;whiteSpace=wrap;html=1;strokeColor=#d6b656;fillColor=#fff2cc;align=left;" vertex="1" parent="Kx-HwaA-jPvCksvryL7s-1">
          <mxGeometry x="0.5" y="120" width="826" height="160" as="geometry" />
        </mxCell>
        <mxCell id="Yiei9IvfS3q8TYXdiDF7-0" value="main.c" style="whiteSpace=wrap;html=1;align=center;fillColor=#F2CC8F;strokeColor=#E07A5F;fontColor=#393C56;" parent="Kx-HwaA-jPvCksvryL7s-1" vertex="1">
          <mxGeometry x="40" y="120" width="40" height="20" as="geometry" />
        </mxCell>
        <mxCell id="w7MudPTy8pmDsaKXsWPU-0" value="程序流程图" style="whiteSpace=wrap;html=1;labelBackgroundColor=none;fillColor=#F2CC8F;strokeColor=#E07A5F;fontColor=#393C56;" parent="Kx-HwaA-jPvCksvryL7s-1" vertex="1">
          <mxGeometry width="160" height="40" as="geometry" />
        </mxCell>
        <mxCell id="w7MudPTy8pmDsaKXsWPU-2" value="parse_args" style="whiteSpace=wrap;html=1;labelBackgroundColor=none;fillColor=#F2CC8F;strokeColor=#E07A5F;fontColor=#393C56;" parent="Kx-HwaA-jPvCksvryL7s-1" vertex="1">
          <mxGeometry x="120" y="160" width="80" height="20" as="geometry" />
        </mxCell>
        <mxCell id="MBpZWOqFHF9DpIEsmXLO-1" value="" style="edgeStyle=orthogonalEdgeStyle;orthogonalLoop=1;jettySize=auto;html=1;strokeColor=#E07A5F;fillColor=#F2CC8F;fontColor=#393C56;" parent="Kx-HwaA-jPvCksvryL7s-1" source="w7MudPTy8pmDsaKXsWPU-3" target="MBpZWOqFHF9DpIEsmXLO-0" edge="1">
          <mxGeometry relative="1" as="geometry" />
        </mxCell>
        <mxCell id="_6BqYGq3dcQpMGy_Ji9J-35" style="edgeStyle=none;orthogonalLoop=1;jettySize=auto;html=1;exitX=0.5;exitY=1;exitDx=0;exitDy=0;entryX=0.5;entryY=0;entryDx=0;entryDy=0;labelBackgroundColor=#F4F1DE;endFill=1;strokeColor=#E07A5F;fontColor=#393C56;endArrow=diamondThin;" edge="1" parent="Kx-HwaA-jPvCksvryL7s-1" source="w7MudPTy8pmDsaKXsWPU-3" target="_6BqYGq3dcQpMGy_Ji9J-0">
          <mxGeometry relative="1" as="geometry" />
        </mxCell>
        <mxCell id="w7MudPTy8pmDsaKXsWPU-3" value="static_translate" style="whiteSpace=wrap;html=1;labelBackgroundColor=none;fillColor=#F2CC8F;strokeColor=#E07A5F;fontColor=#393C56;" parent="Kx-HwaA-jPvCksvryL7s-1" vertex="1">
          <mxGeometry x="120" y="220" width="120" height="20" as="geometry" />
        </mxCell>
        <mxCell id="w7MudPTy8pmDsaKXsWPU-34" value="待翻译文件名" style="endArrow=classic;html=1;exitX=0.5;exitY=1;exitDx=0;exitDy=0;entryX=0.342;entryY=0;entryDx=0;entryDy=0;entryPerimeter=0;labelBackgroundColor=#F4F1DE;strokeColor=#E07A5F;fontColor=#393C56;" parent="Kx-HwaA-jPvCksvryL7s-1" source="w7MudPTy8pmDsaKXsWPU-2" target="w7MudPTy8pmDsaKXsWPU-3" edge="1">
          <mxGeometry relative="1" as="geometry">
            <mxPoint x="150" y="180" as="sourcePoint" />
            <mxPoint x="250" y="180" as="targetPoint" />
          </mxGeometry>
        </mxCell>
        <mxCell id="MBpZWOqFHF9DpIEsmXLO-0" value="生成s2d中间文件" style="text;html=1;strokeColor=#2D7600;fillColor=#60a917;align=center;verticalAlign=middle;whiteSpace=wrap;fontColor=#ffffff;" parent="Kx-HwaA-jPvCksvryL7s-1" vertex="1">
          <mxGeometry x="290" y="220" width="121" height="20" as="geometry" />
        </mxCell>
        <mxCell id="_6BqYGq3dcQpMGy_Ji9J-4" value="" style="orthogonalLoop=1;jettySize=auto;html=1;labelBackgroundColor=#F4F1DE;endArrow=classic;endFill=1;strokeColor=#E07A5F;fontColor=#393C56;" edge="1" parent="Kx-HwaA-jPvCksvryL7s-1" source="9q0aHyiQRUia_ZDVntHF-2" target="9q0aHyiQRUia_ZDVntHF-4">
          <mxGeometry relative="1" as="geometry" />
        </mxCell>
        <mxCell id="9q0aHyiQRUia_ZDVntHF-2" value="mips_elf_load" style="whiteSpace=wrap;html=1;strokeColor=#E07A5F;fillColor=#F2CC8F;fontColor=#393C56;" vertex="1" parent="Kx-HwaA-jPvCksvryL7s-1">
          <mxGeometry x="279" y="320" width="120" height="20" as="geometry" />
        </mxCell>
        <mxCell id="_6BqYGq3dcQpMGy_Ji9J-8" value="" style="edgeStyle=orthogonalEdgeStyle;orthogonalLoop=1;jettySize=auto;html=1;labelBackgroundColor=#F4F1DE;endFill=1;strokeColor=#E07A5F;fontColor=#393C56;" edge="1" parent="Kx-HwaA-jPvCksvryL7s-1" source="9q0aHyiQRUia_ZDVntHF-3" target="_6BqYGq3dcQpMGy_Ji9J-7">
          <mxGeometry relative="1" as="geometry" />
        </mxCell>
        <mxCell id="9q0aHyiQRUia_ZDVntHF-3" value="add_tu_entry" style="whiteSpace=wrap;html=1;strokeColor=#E07A5F;fillColor=#F2CC8F;fontColor=#393C56;" vertex="1" parent="Kx-HwaA-jPvCksvryL7s-1">
          <mxGeometry x="280" y="380" width="120" height="20" as="geometry" />
        </mxCell>
        <mxCell id="9q0aHyiQRUia_ZDVntHF-4" value="1、打开elf文件，获取描述符。&lt;br&gt;2、通过mmap将文件映射到进程空间，并且将地址保存至buff成员中&lt;br&gt;3、填充节、段、表头地址至mips_elf结构体中&lt;br&gt;4、保存elf文件中的地址、和elf在进程空间中的虚地址。&lt;br&gt;5、将节地址作为分割点，保存至split_points成员中" style="text;html=1;strokeColor=none;fillColor=none;align=left;verticalAlign=middle;whiteSpace=wrap;fontColor=#393C56;" vertex="1" parent="Kx-HwaA-jPvCksvryL7s-1">
          <mxGeometry x="450" y="280" width="371" height="90" as="geometry" />
        </mxCell>
        <mxCell id="IKCo1I5jAepCgzux9h9F-1" value="elf_info.c" style="whiteSpace=wrap;html=1;strokeColor=#E07A5F;fillColor=#F2CC8F;fontColor=#393C56;align=left;" vertex="1" parent="Kx-HwaA-jPvCksvryL7s-1">
          <mxGeometry x="40" y="280" width="50" height="20" as="geometry" />
        </mxCell>
        <mxCell id="_6BqYGq3dcQpMGy_Ji9J-5" value="" style="orthogonalLoop=1;jettySize=auto;html=1;labelBackgroundColor=#F4F1DE;endFill=1;strokeColor=#E07A5F;fontColor=#393C56;" edge="1" parent="Kx-HwaA-jPvCksvryL7s-1" source="_6BqYGq3dcQpMGy_Ji9J-0" target="9q0aHyiQRUia_ZDVntHF-2">
          <mxGeometry relative="1" as="geometry" />
        </mxCell>
        <mxCell id="_6BqYGq3dcQpMGy_Ji9J-12" style="orthogonalLoop=1;jettySize=auto;html=1;exitX=1;exitY=0.5;exitDx=0;exitDy=0;labelBackgroundColor=#F4F1DE;endFill=1;strokeColor=#E07A5F;fontColor=#393C56;entryX=0;entryY=0.5;entryDx=0;entryDy=0;" edge="1" parent="Kx-HwaA-jPvCksvryL7s-1" source="_6BqYGq3dcQpMGy_Ji9J-0" target="9q0aHyiQRUia_ZDVntHF-3">
          <mxGeometry relative="1" as="geometry">
            <mxPoint x="290" y="390" as="targetPoint" />
          </mxGeometry>
        </mxCell>
        <mxCell id="_6BqYGq3dcQpMGy_Ji9J-13" style="edgeStyle=none;orthogonalLoop=1;jettySize=auto;html=1;exitX=0.75;exitY=1;exitDx=0;exitDy=0;labelBackgroundColor=#F4F1DE;endFill=1;strokeColor=#E07A5F;fontColor=#393C56;entryX=0;entryY=0.5;entryDx=0;entryDy=0;" edge="1" parent="Kx-HwaA-jPvCksvryL7s-1" source="_6BqYGq3dcQpMGy_Ji9J-0" target="_6BqYGq3dcQpMGy_Ji9J-9">
          <mxGeometry relative="1" as="geometry" />
        </mxCell>
        <mxCell id="_6BqYGq3dcQpMGy_Ji9J-38" value="检查是否越界" style="edgeStyle=none;orthogonalLoop=1;jettySize=auto;html=1;exitX=0.5;exitY=1;exitDx=0;exitDy=0;entryX=0.5;entryY=0;entryDx=0;entryDy=0;labelBackgroundColor=#F4F1DE;endArrow=diamondThin;endFill=1;strokeColor=#E07A5F;fontColor=#393C56;" edge="1" parent="Kx-HwaA-jPvCksvryL7s-1" source="_6BqYGq3dcQpMGy_Ji9J-0" target="_6BqYGq3dcQpMGy_Ji9J-24">
          <mxGeometry relative="1" as="geometry" />
        </mxCell>
        <mxCell id="_6BqYGq3dcQpMGy_Ji9J-0" value="mips_elf_translate" style="whiteSpace=wrap;html=1;strokeColor=#E07A5F;fillColor=#F2CC8F;fontColor=#393C56;align=center;" vertex="1" parent="Kx-HwaA-jPvCksvryL7s-1">
          <mxGeometry x="120" y="380" width="120" height="20" as="geometry" />
        </mxCell>
        <mxCell id="_6BqYGq3dcQpMGy_Ji9J-7" value="从符号表或者ladbt profile中找到函数入口点，并且放入至tu_addr向量中。" style="text;html=1;strokeColor=none;fillColor=none;align=left;verticalAlign=middle;whiteSpace=wrap;fontColor=#393C56;" vertex="1" parent="Kx-HwaA-jPvCksvryL7s-1">
          <mxGeometry x="470" y="370" width="280" height="40" as="geometry" />
        </mxCell>
        <mxCell id="_6BqYGq3dcQpMGy_Ji9J-9" value="将tu_addr中保存的函数入口点也作为分割点，添加到&lt;span style=&quot;text-align: left&quot;&gt;split_points成员中&lt;/span&gt;" style="text;html=1;strokeColor=none;fillColor=none;align=center;verticalAlign=middle;whiteSpace=wrap;fontColor=#393C56;" vertex="1" parent="Kx-HwaA-jPvCksvryL7s-1">
          <mxGeometry x="370" y="420" width="390" height="20" as="geometry" />
        </mxCell>
        <mxCell id="_6BqYGq3dcQpMGy_Ji9J-21" value="main/" style="rounded=0;whiteSpace=wrap;html=1;strokeColor=#E07A5F;fillColor=#F2CC8F;fontColor=#393C56;align=left;" vertex="1" parent="Kx-HwaA-jPvCksvryL7s-1">
          <mxGeometry y="100" width="40" height="20" as="geometry" />
        </mxCell>
        <mxCell id="_6BqYGq3dcQpMGy_Ji9J-22" value="include/" style="rounded=0;whiteSpace=wrap;html=1;strokeColor=#E07A5F;fillColor=#F2CC8F;fontColor=#393C56;align=left;" vertex="1" parent="Kx-HwaA-jPvCksvryL7s-1">
          <mxGeometry y="440" width="55" height="20" as="geometry" />
        </mxCell>
        <mxCell id="_6BqYGq3dcQpMGy_Ji9J-26" value="" style="edgeStyle=none;orthogonalLoop=1;jettySize=auto;html=1;labelBackgroundColor=#F4F1DE;endFill=1;strokeColor=#E07A5F;fontColor=#393C56;" edge="1" parent="Kx-HwaA-jPvCksvryL7s-1" source="_6BqYGq3dcQpMGy_Ji9J-24" target="_6BqYGq3dcQpMGy_Ji9J-25">
          <mxGeometry relative="1" as="geometry" />
        </mxCell>
        <mxCell id="_6BqYGq3dcQpMGy_Ji9J-24" value="assertm" style="rounded=0;whiteSpace=wrap;html=1;strokeColor=#E07A5F;fillColor=#F2CC8F;fontColor=#393C56;align=left;" vertex="1" parent="Kx-HwaA-jPvCksvryL7s-1">
          <mxGeometry x="40" y="490" width="60" height="20" as="geometry" />
        </mxCell>
        <mxCell id="_6BqYGq3dcQpMGy_Ji9J-25" value="打印错误信息" style="text;html=1;strokeColor=none;fillColor=none;align=center;verticalAlign=middle;whiteSpace=wrap;rounded=0;fontColor=#393C56;" vertex="1" parent="Kx-HwaA-jPvCksvryL7s-1">
          <mxGeometry x="30" y="540" width="80" height="30" as="geometry" />
        </mxCell>
        <mxCell id="_6BqYGq3dcQpMGy_Ji9J-28" value="tu/" style="rounded=0;whiteSpace=wrap;html=1;strokeColor=#E07A5F;fillColor=#F2CC8F;fontColor=#393C56;align=left;" vertex="1" parent="Kx-HwaA-jPvCksvryL7s-1">
          <mxGeometry y="620" width="36" height="20" as="geometry" />
        </mxCell>
        <mxCell id="_6BqYGq3dcQpMGy_Ji9J-30" value="tu.c" style="rounded=0;whiteSpace=wrap;html=1;strokeColor=#E07A5F;fillColor=#F2CC8F;fontColor=#393C56;align=left;" vertex="1" parent="Kx-HwaA-jPvCksvryL7s-1">
          <mxGeometry x="40" y="640" width="40" height="20" as="geometry" />
        </mxCell>
        <mxCell id="_6BqYGq3dcQpMGy_Ji9J-31" value="tb.c" style="rounded=0;whiteSpace=wrap;html=1;strokeColor=#E07A5F;fillColor=#F2CC8F;fontColor=#393C56;align=left;" vertex="1" parent="Kx-HwaA-jPvCksvryL7s-1">
          <mxGeometry x="40" y="780" width="40" height="20" as="geometry" />
        </mxCell>
        <mxCell id="_6BqYGq3dcQpMGy_Ji9J-37" value="" style="edgeStyle=none;orthogonalLoop=1;jettySize=auto;html=1;labelBackgroundColor=#F4F1DE;endArrow=diamondThin;endFill=1;strokeColor=#E07A5F;fontColor=#393C56;entryX=0.5;entryY=0;entryDx=0;entryDy=0;" edge="1" parent="Kx-HwaA-jPvCksvryL7s-1" source="_6BqYGq3dcQpMGy_Ji9J-36" target="w7MudPTy8pmDsaKXsWPU-2">
          <mxGeometry relative="1" as="geometry" />
        </mxCell>
        <mxCell id="_6BqYGq3dcQpMGy_Ji9J-36" value="main" style="rounded=0;whiteSpace=wrap;html=1;strokeColor=#E07A5F;fillColor=#F2CC8F;fontColor=#393C56;align=left;" vertex="1" parent="Kx-HwaA-jPvCksvryL7s-1">
          <mxGeometry x="140" y="120" width="40" height="20" as="geometry" />
        </mxCell>
        <mxCell id="_6BqYGq3dcQpMGy_Ji9J-40" value="tu_find" style="rounded=0;whiteSpace=wrap;html=1;strokeColor=#E07A5F;fillColor=#F2CC8F;fontColor=#393C56;align=left;" vertex="1" parent="Kx-HwaA-jPvCksvryL7s-1">
          <mxGeometry x="80" y="680" width="40" height="20" as="geometry" />
        </mxCell>
        <mxCell id="_6BqYGq3dcQpMGy_Ji9J-41" value="tb_find" style="rounded=0;whiteSpace=wrap;html=1;strokeColor=#E07A5F;fillColor=#F2CC8F;fontColor=#393C56;align=left;" vertex="1" parent="Kx-HwaA-jPvCksvryL7s-1">
          <mxGeometry x="80" y="820" width="40" height="20" as="geometry" />
        </mxCell>
        <mxCell id="vA-haN5CxFb7ftcKeL5Y-2" value="&lt;div&gt;&lt;span&gt;1、使用tu_addr作为key查找map中的value,也即tu结构体指针&lt;/span&gt;&lt;/div&gt;&lt;div&gt;&lt;span&gt;2、如果没找到，则将tu的vector索引加1，创建新的tu结构体并且初始化，再将其tu_addr作为key插入到curr_elf_info-&amp;gt;addr_to_tu（map结构）中&lt;/span&gt;&lt;/div&gt;" style="text;html=1;strokeColor=none;fillColor=none;align=left;verticalAlign=middle;whiteSpace=wrap;rounded=0;fontColor=#393C56;" vertex="1" parent="Kx-HwaA-jPvCksvryL7s-1">
          <mxGeometry x="200" y="680" width="370" height="50" as="geometry" />
        </mxCell>
      </root>
    </mxGraphModel>
  </diagram>
  <diagram id="07xNSt81JQnOGD0zxqk9" name="Page-3">
    <mxGraphModel dx="1422" dy="716" grid="1" gridSize="10" guides="1" tooltips="1" connect="1" arrows="1" fold="1" page="1" pageScale="1" pageWidth="827" pageHeight="1169" background="#F4F1DE" math="0" shadow="0">
      <root>
        <mxCell id="qyhttrCjrE4rRAJjd9Kx-0" />
        <mxCell id="qyhttrCjrE4rRAJjd9Kx-1" parent="qyhttrCjrE4rRAJjd9Kx-0" />
        <mxCell id="qyhttrCjrE4rRAJjd9Kx-2" value="util" style="rounded=0;whiteSpace=wrap;html=1;sketch=0;strokeColor=#E07A5F;fillColor=#F2CC8F;fontColor=#393C56;" parent="qyhttrCjrE4rRAJjd9Kx-1" vertex="1">
          <mxGeometry width="120" height="40" as="geometry" />
        </mxCell>
        <mxCell id="qyhttrCjrE4rRAJjd9Kx-3" value="cmp_addr" style="rounded=0;whiteSpace=wrap;html=1;sketch=0;strokeColor=#E07A5F;fillColor=#F2CC8F;fontColor=#393C56;" parent="qyhttrCjrE4rRAJjd9Kx-1" vertex="1">
          <mxGeometry x="160" y="80" width="60" height="20" as="geometry" />
        </mxCell>
        <mxCell id="qyhttrCjrE4rRAJjd9Kx-4" value="cmp" style="rounded=0;whiteSpace=wrap;html=1;sketch=0;strokeColor=#E07A5F;fillColor=#F2CC8F;fontColor=#393C56;" parent="qyhttrCjrE4rRAJjd9Kx-1" vertex="1">
          <mxGeometry x="40" y="80" width="40" height="20" as="geometry" />
        </mxCell>
        <mxCell id="qyhttrCjrE4rRAJjd9Kx-8" value="cmp_intptr" style="rounded=0;whiteSpace=wrap;html=1;sketch=0;strokeColor=#E07A5F;fillColor=#F2CC8F;fontColor=#393C56;" parent="qyhttrCjrE4rRAJjd9Kx-1" vertex="1">
          <mxGeometry x="220" y="80" width="60" height="20" as="geometry" />
        </mxCell>
        <mxCell id="qyhttrCjrE4rRAJjd9Kx-13" value="" style="edgeStyle=orthogonalEdgeStyle;curved=0;rounded=1;sketch=0;orthogonalLoop=1;jettySize=auto;html=1;strokeColor=#E07A5F;fillColor=#F2CC8F;fontColor=#393C56;" parent="qyhttrCjrE4rRAJjd9Kx-1" source="qyhttrCjrE4rRAJjd9Kx-10" target="qyhttrCjrE4rRAJjd9Kx-11" edge="1">
          <mxGeometry relative="1" as="geometry" />
        </mxCell>
        <mxCell id="qyhttrCjrE4rRAJjd9Kx-10" value="map" style="rounded=0;whiteSpace=wrap;html=1;sketch=0;strokeColor=#E07A5F;fillColor=#F2CC8F;fontColor=#393C56;" parent="qyhttrCjrE4rRAJjd9Kx-1" vertex="1">
          <mxGeometry x="40" y="160" width="40" height="20" as="geometry" />
        </mxCell>
        <mxCell id="qyhttrCjrE4rRAJjd9Kx-11" value="1、addr_t, intptr_t&lt;br&gt;2、intptr_t, intptr_t" style="rounded=0;whiteSpace=wrap;html=1;sketch=0;strokeColor=#E07A5F;fillColor=#F2CC8F;fontColor=#393C56;" parent="qyhttrCjrE4rRAJjd9Kx-1" vertex="1">
          <mxGeometry x="160" y="150" width="120" height="40" as="geometry" />
        </mxCell>
        <mxCell id="qyhttrCjrE4rRAJjd9Kx-14" value="insert" style="rounded=0;whiteSpace=wrap;html=1;sketch=0;strokeColor=#E07A5F;fillColor=#F2CC8F;fontColor=#393C56;" parent="qyhttrCjrE4rRAJjd9Kx-1" vertex="1">
          <mxGeometry x="360" y="150" width="40" height="20" as="geometry" />
        </mxCell>
        <mxCell id="qyhttrCjrE4rRAJjd9Kx-15" value="erase" style="rounded=0;whiteSpace=wrap;html=1;sketch=0;strokeColor=#E07A5F;fillColor=#F2CC8F;fontColor=#393C56;" parent="qyhttrCjrE4rRAJjd9Kx-1" vertex="1">
          <mxGeometry x="400" y="150" width="40" height="20" as="geometry" />
        </mxCell>
        <mxCell id="qyhttrCjrE4rRAJjd9Kx-16" value="update" style="rounded=0;whiteSpace=wrap;html=1;sketch=0;strokeColor=#E07A5F;fillColor=#F2CC8F;fontColor=#393C56;" parent="qyhttrCjrE4rRAJjd9Kx-1" vertex="1">
          <mxGeometry x="440" y="150" width="40" height="20" as="geometry" />
        </mxCell>
        <mxCell id="qyhttrCjrE4rRAJjd9Kx-17" value="find" style="rounded=0;whiteSpace=wrap;html=1;sketch=0;strokeColor=#E07A5F;fillColor=#F2CC8F;fontColor=#393C56;" parent="qyhttrCjrE4rRAJjd9Kx-1" vertex="1">
          <mxGeometry x="360" y="190" width="40" height="20" as="geometry" />
        </mxCell>
        <mxCell id="qyhttrCjrE4rRAJjd9Kx-18" value="first" style="rounded=0;whiteSpace=wrap;html=1;sketch=0;strokeColor=#E07A5F;fillColor=#F2CC8F;fontColor=#393C56;" parent="qyhttrCjrE4rRAJjd9Kx-1" vertex="1">
          <mxGeometry x="400" y="190" width="40" height="20" as="geometry" />
        </mxCell>
        <mxCell id="qyhttrCjrE4rRAJjd9Kx-19" value="last" style="rounded=0;whiteSpace=wrap;html=1;sketch=0;strokeColor=#E07A5F;fillColor=#F2CC8F;fontColor=#393C56;" parent="qyhttrCjrE4rRAJjd9Kx-1" vertex="1">
          <mxGeometry x="440" y="190" width="40" height="20" as="geometry" />
        </mxCell>
        <mxCell id="qyhttrCjrE4rRAJjd9Kx-20" value="next" style="rounded=0;whiteSpace=wrap;html=1;sketch=0;strokeColor=#E07A5F;fillColor=#F2CC8F;fontColor=#393C56;" parent="qyhttrCjrE4rRAJjd9Kx-1" vertex="1">
          <mxGeometry x="480" y="190" width="40" height="20" as="geometry" />
        </mxCell>
        <mxCell id="qyhttrCjrE4rRAJjd9Kx-21" value="prev" style="rounded=0;whiteSpace=wrap;html=1;sketch=0;strokeColor=#E07A5F;fillColor=#F2CC8F;fontColor=#393C56;" parent="qyhttrCjrE4rRAJjd9Kx-1" vertex="1">
          <mxGeometry x="520" y="190" width="40" height="20" as="geometry" />
        </mxCell>
        <mxCell id="qyhttrCjrE4rRAJjd9Kx-22" value="cmp" style="rounded=0;whiteSpace=wrap;html=1;sketch=0;strokeColor=#E07A5F;fillColor=#F2CC8F;fontColor=#393C56;" parent="qyhttrCjrE4rRAJjd9Kx-1" vertex="1">
          <mxGeometry x="560" y="190" width="40" height="20" as="geometry" />
        </mxCell>
        <mxCell id="qyhttrCjrE4rRAJjd9Kx-40" value="queue" style="rounded=0;whiteSpace=wrap;html=1;sketch=0;strokeColor=#E07A5F;fillColor=#F2CC8F;fontColor=#393C56;" parent="qyhttrCjrE4rRAJjd9Kx-1" vertex="1">
          <mxGeometry x="40" y="270" width="40" height="20" as="geometry" />
        </mxCell>
        <mxCell id="qyhttrCjrE4rRAJjd9Kx-41" value="set" style="rounded=0;whiteSpace=wrap;html=1;sketch=0;strokeColor=#E07A5F;fillColor=#F2CC8F;fontColor=#393C56;" parent="qyhttrCjrE4rRAJjd9Kx-1" vertex="1">
          <mxGeometry x="40" y="430" width="40" height="20" as="geometry" />
        </mxCell>
        <mxCell id="qyhttrCjrE4rRAJjd9Kx-42" value="vector" style="rounded=0;whiteSpace=wrap;html=1;sketch=0;strokeColor=#E07A5F;fillColor=#F2CC8F;fontColor=#393C56;" parent="qyhttrCjrE4rRAJjd9Kx-1" vertex="1">
          <mxGeometry x="40" y="350" width="40" height="20" as="geometry" />
        </mxCell>
        <mxCell id="qyhttrCjrE4rRAJjd9Kx-43" value="create" style="rounded=0;whiteSpace=wrap;html=1;sketch=0;strokeColor=#E07A5F;fillColor=#F2CC8F;fontColor=#393C56;" parent="qyhttrCjrE4rRAJjd9Kx-1" vertex="1">
          <mxGeometry x="160" y="270" width="40" height="20" as="geometry" />
        </mxCell>
        <mxCell id="qyhttrCjrE4rRAJjd9Kx-44" value="push" style="rounded=0;whiteSpace=wrap;html=1;sketch=0;strokeColor=#E07A5F;fillColor=#F2CC8F;fontColor=#393C56;" parent="qyhttrCjrE4rRAJjd9Kx-1" vertex="1">
          <mxGeometry x="200" y="270" width="40" height="20" as="geometry" />
        </mxCell>
        <mxCell id="qyhttrCjrE4rRAJjd9Kx-45" value="pop" style="rounded=0;whiteSpace=wrap;html=1;sketch=0;strokeColor=#E07A5F;fillColor=#F2CC8F;fontColor=#393C56;" parent="qyhttrCjrE4rRAJjd9Kx-1" vertex="1">
          <mxGeometry x="240" y="270" width="40" height="20" as="geometry" />
        </mxCell>
        <mxCell id="qyhttrCjrE4rRAJjd9Kx-50" value="1、intptr_t&lt;br&gt;2、addr_t" style="rounded=0;whiteSpace=wrap;html=1;sketch=0;strokeColor=#E07A5F;fillColor=#F2CC8F;fontColor=#393C56;" parent="qyhttrCjrE4rRAJjd9Kx-1" vertex="1">
          <mxGeometry x="160" y="430" width="80" height="30" as="geometry" />
        </mxCell>
        <mxCell id="qyhttrCjrE4rRAJjd9Kx-52" value="create" style="rounded=0;whiteSpace=wrap;html=1;sketch=0;strokeColor=#E07A5F;fillColor=#F2CC8F;fontColor=#393C56;" parent="qyhttrCjrE4rRAJjd9Kx-1" vertex="1">
          <mxGeometry x="320" y="430" width="40" height="20" as="geometry" />
        </mxCell>
        <mxCell id="qyhttrCjrE4rRAJjd9Kx-53" value="insert" style="rounded=0;whiteSpace=wrap;html=1;sketch=0;strokeColor=#E07A5F;fillColor=#F2CC8F;fontColor=#393C56;" parent="qyhttrCjrE4rRAJjd9Kx-1" vertex="1">
          <mxGeometry x="400" y="430" width="40" height="20" as="geometry" />
        </mxCell>
        <mxCell id="qyhttrCjrE4rRAJjd9Kx-54" value="erase" style="rounded=0;whiteSpace=wrap;html=1;sketch=0;strokeColor=#E07A5F;fillColor=#F2CC8F;fontColor=#393C56;" parent="qyhttrCjrE4rRAJjd9Kx-1" vertex="1">
          <mxGeometry x="480" y="430" width="40" height="20" as="geometry" />
        </mxCell>
        <mxCell id="qyhttrCjrE4rRAJjd9Kx-55" value="find" style="rounded=0;whiteSpace=wrap;html=1;sketch=0;strokeColor=#E07A5F;fillColor=#F2CC8F;fontColor=#393C56;" parent="qyhttrCjrE4rRAJjd9Kx-1" vertex="1">
          <mxGeometry x="320" y="470" width="40" height="20" as="geometry" />
        </mxCell>
        <mxCell id="qyhttrCjrE4rRAJjd9Kx-56" value="first" style="rounded=0;whiteSpace=wrap;html=1;sketch=0;strokeColor=#E07A5F;fillColor=#F2CC8F;fontColor=#393C56;" parent="qyhttrCjrE4rRAJjd9Kx-1" vertex="1">
          <mxGeometry x="360" y="470" width="40" height="20" as="geometry" />
        </mxCell>
        <mxCell id="qyhttrCjrE4rRAJjd9Kx-57" value="last" style="rounded=0;whiteSpace=wrap;html=1;sketch=0;strokeColor=#E07A5F;fillColor=#F2CC8F;fontColor=#393C56;" parent="qyhttrCjrE4rRAJjd9Kx-1" vertex="1">
          <mxGeometry x="400" y="470" width="40" height="20" as="geometry" />
        </mxCell>
        <mxCell id="qyhttrCjrE4rRAJjd9Kx-58" value="next" style="rounded=0;whiteSpace=wrap;html=1;sketch=0;strokeColor=#E07A5F;fillColor=#F2CC8F;fontColor=#393C56;" parent="qyhttrCjrE4rRAJjd9Kx-1" vertex="1">
          <mxGeometry x="440" y="470" width="40" height="20" as="geometry" />
        </mxCell>
        <mxCell id="qyhttrCjrE4rRAJjd9Kx-59" value="prev" style="rounded=0;whiteSpace=wrap;html=1;sketch=0;strokeColor=#E07A5F;fillColor=#F2CC8F;fontColor=#393C56;" parent="qyhttrCjrE4rRAJjd9Kx-1" vertex="1">
          <mxGeometry x="480" y="470" width="40" height="20" as="geometry" />
        </mxCell>
        <mxCell id="qyhttrCjrE4rRAJjd9Kx-61" value="create_vector" style="rounded=0;whiteSpace=wrap;html=1;sketch=0;strokeColor=#E07A5F;fillColor=#F2CC8F;fontColor=#393C56;" parent="qyhttrCjrE4rRAJjd9Kx-1" vertex="1">
          <mxGeometry x="160" y="350" width="80" height="20" as="geometry" />
        </mxCell>
        <mxCell id="qyhttrCjrE4rRAJjd9Kx-62" value="alloc" style="rounded=0;whiteSpace=wrap;html=1;sketch=0;strokeColor=#E07A5F;fillColor=#F2CC8F;fontColor=#393C56;" parent="qyhttrCjrE4rRAJjd9Kx-1" vertex="1">
          <mxGeometry x="240" y="350" width="40" height="20" as="geometry" />
        </mxCell>
        <mxCell id="qyhttrCjrE4rRAJjd9Kx-63" value="add" style="rounded=0;whiteSpace=wrap;html=1;sketch=0;strokeColor=#E07A5F;fillColor=#F2CC8F;fontColor=#393C56;" parent="qyhttrCjrE4rRAJjd9Kx-1" vertex="1">
          <mxGeometry x="280" y="350" width="40" height="20" as="geometry" />
        </mxCell>
        <mxCell id="qyhttrCjrE4rRAJjd9Kx-64" value="clear" style="rounded=0;whiteSpace=wrap;html=1;sketch=0;strokeColor=#E07A5F;fillColor=#F2CC8F;fontColor=#393C56;" parent="qyhttrCjrE4rRAJjd9Kx-1" vertex="1">
          <mxGeometry x="320" y="350" width="40" height="20" as="geometry" />
        </mxCell>
        <mxCell id="qyhttrCjrE4rRAJjd9Kx-65" value="back" style="rounded=0;whiteSpace=wrap;html=1;sketch=0;strokeColor=#E07A5F;fillColor=#F2CC8F;fontColor=#393C56;" parent="qyhttrCjrE4rRAJjd9Kx-1" vertex="1">
          <mxGeometry x="360" y="350" width="40" height="20" as="geometry" />
        </mxCell>
        <mxCell id="qyhttrCjrE4rRAJjd9Kx-66" value="&lt;span&gt;存储结构采用红黑树&lt;/span&gt;" style="rounded=0;whiteSpace=wrap;html=1;sketch=0;strokeColor=#E07A5F;fillColor=#F2CC8F;fontColor=#393C56;" parent="qyhttrCjrE4rRAJjd9Kx-1" vertex="1">
          <mxGeometry x="640" y="430" width="120" height="20" as="geometry" />
        </mxCell>
        <mxCell id="qyhttrCjrE4rRAJjd9Kx-67" value="&lt;span&gt;存储结构采用红黑树&lt;/span&gt;" style="rounded=0;whiteSpace=wrap;html=1;sketch=0;strokeColor=#E07A5F;fillColor=#F2CC8F;fontColor=#393C56;" parent="qyhttrCjrE4rRAJjd9Kx-1" vertex="1">
          <mxGeometry x="640" y="150" width="120" height="20" as="geometry" />
        </mxCell>
      </root>
    </mxGraphModel>
  </diagram>
</mxfile>
